<svg vsvg="true" xmlns="" ct="http://gionkunz.github.com/chartist-js/ct" width="100%" height="100%" class="ct-chart-bar" style="0:w;1:i;2:d;3:t;4:h;5::;6: ;7:1;8:0;9:0;10:%;11:;;12: ;13:h;14:e;15:i;16:g;17:h;18:t;19::;20: ;21:1;22:0;23:0;24:%;25:;;" ><rect width="981" height="305" fill="white" ></rect><g ><text text-anchor="start" style="dx:100;dy:100;font-family:sans;padding:5px;" x="45" y="303" width="234" height="30" >Impressions</text><text text-anchor="start" style="dx:100;dy:100;font-family:sans;padding:5px;" x="279" y="303" width="234" height="30" >Started</text><text text-anchor="start" style="dx:100;dy:100;font-family:sans;padding:5px;" x="513" y="303" width="234" height="30" >Completed</text><text text-anchor="start" style="dx:100;dy:100;font-family:sans;padding:5px;" x="747" y="303" width="234" height="30" >Retakes</text><text text-anchor="start" style="dx:100;dy:100;font-family:sans;padding:5px;" x="-5" y="283" width="40" height="26.636363636363637" >0</text><text text-anchor="start" style="dx:100;dy:100;font-family:sans;padding:5px;" x="-5" y="256.3636363636364" width="40" height="26.636363636363637" >1000</text><text text-anchor="start" style="dx:100;dy:100;font-family:sans;padding:5px;" x="-5" y="229.72727272727272" width="40" height="26.636363636363637" >2000</text><text text-anchor="start" style="dx:100;dy:100;font-family:sans;padding:5px;" x="-5" y="203.0909090909091" width="40" height="26.636363636363637" >3000</text><text text-anchor="start" style="dx:100;dy:100;font-family:sans;padding:5px;" x="-5" y="176.45454545454544" width="40" height="26.636363636363637" >4000</text><text text-anchor="start" style="dx:100;dy:100;font-family:sans;padding:5px;" x="-5" y="149.8181818181818" width="40" height="26.636363636363637" >5000</text><text text-anchor="start" style="dx:100;dy:100;font-family:sans;padding:5px;" x="-5" y="123.18181818181819" width="40" height="26.636363636363637" >6000</text><text text-anchor="start" style="dx:100;dy:100;font-family:sans;padding:5px;" x="-5" y="96.54545454545453" width="40" height="26.636363636363637" >7000</text><text text-anchor="start" style="dx:100;dy:100;font-family:sans;padding:5px;" x="-5" y="69.9090909090909" width="40" height="26.636363636363637" >8000</text><text text-anchor="start" style="dx:100;dy:100;font-family:sans;padding:5px;" x="-5" y="43.27272727272728" width="40" height="26.636363636363637" >9000</text><text text-anchor="start" style="dx:100;dy:100;font-family:sans;padding:5px;" x="-5" y="16.636363636363626" width="40" height="26.636363636363637" >10000</text></g><g ><line stroke="rgba(0,0,0,0.2)" stroke-width="1" stroke-dasharray="2" x1="45" y1="298" x2="45" y2="5" class="ct-grid ct-horizontal" ></line><line stroke="rgba(0,0,0,0.2)" stroke-width="1" stroke-dasharray="2" x1="279" y1="298" x2="279" y2="5" class="ct-grid ct-horizontal" ></line><line stroke="rgba(0,0,0,0.2)" stroke-width="1" stroke-dasharray="2" x1="513" y1="298" x2="513" y2="5" class="ct-grid ct-horizontal" ></line><line stroke="rgba(0,0,0,0.2)" stroke-width="1" stroke-dasharray="2" x1="747" y1="298" x2="747" y2="5" class="ct-grid ct-horizontal" ></line><line stroke="rgba(0,0,0,0.2)" stroke-width="1" stroke-dasharray="2" x1="45" y1="298" x2="981" y2="298" class="ct-grid ct-vertical" ></line><line stroke="rgba(0,0,0,0.2)" stroke-width="1" stroke-dasharray="2" x1="45" y1="271.3636363636364" x2="981" y2="271.3636363636364" class="ct-grid ct-vertical" ></line><line stroke="rgba(0,0,0,0.2)" stroke-width="1" stroke-dasharray="2" x1="45" y1="244.72727272727272" x2="981" y2="244.72727272727272" class="ct-grid ct-vertical" ></line><line stroke="rgba(0,0,0,0.2)" stroke-width="1" stroke-dasharray="2" x1="45" y1="218.0909090909091" x2="981" y2="218.0909090909091" class="ct-grid ct-vertical" ></line><line stroke="rgba(0,0,0,0.2)" stroke-width="1" stroke-dasharray="2" x1="45" y1="191.45454545454544" x2="981" y2="191.45454545454544" class="ct-grid ct-vertical" ></line><line stroke="rgba(0,0,0,0.2)" stroke-width="1" stroke-dasharray="2" x1="45" y1="164.8181818181818" x2="981" y2="164.8181818181818" class="ct-grid ct-vertical" ></line><line stroke="rgba(0,0,0,0.2)" stroke-width="1" stroke-dasharray="2" x1="45" y1="138.1818181818182" x2="981" y2="138.1818181818182" class="ct-grid ct-vertical" ></line><line stroke="rgba(0,0,0,0.2)" stroke-width="1" stroke-dasharray="2" x1="45" y1="111.54545454545453" x2="981" y2="111.54545454545453" class="ct-grid ct-vertical" ></line><line stroke="rgba(0,0,0,0.2)" stroke-width="1" stroke-dasharray="2" x1="45" y1="84.9090909090909" x2="981" y2="84.9090909090909" class="ct-grid ct-vertical" ></line><line stroke="rgba(0,0,0,0.2)" stroke-width="1" stroke-dasharray="2" x1="45" y1="58.27272727272728" x2="981" y2="58.27272727272728" class="ct-grid ct-vertical" ></line><line stroke="rgba(0,0,0,0.2)" stroke-width="1" stroke-dasharray="2" x1="45" y1="31.636363636363626" x2="981" y2="31.636363636363626" class="ct-grid ct-vertical" ></line></g><g class="ct-series ct-series-a" ><line stroke="#b1b2b3" stroke-width="5%" x1="162" y1="298" x2="162" y2="57.58018181818181" class="ct-bar" value="9026" ></line><line stroke="#5babdd" stroke-width="5%" x1="396" y1="298" x2="396" y2="90.74245454545454" class="ct-bar" value="7781" ></line><line stroke="#33aa7b" stroke-width="5%" x1="630" y1="298" x2="630" y2="163.06018181818183" class="ct-bar" value="5066" ></line><line stroke="#2e76a4" stroke-width="5%" x1="864" y1="298" x2="864" y2="285.0547272727273" class="ct-bar" value="486" ></line></g><g percentgroup="" ><g ><polygon fill="#b1b2b3" class="ct-percent" points="244,70.74245454545454 294,70.74245454545454 314,90.74245454545454 294,110.74245454545454 244,110.74245454545454" ></polygon><text class="ct-percent-text" x="274" y="90.74245454545454" >86%</text></g><g ><polygon fill="#b1b2b3" class="ct-percent" points="478,143.06018181818183 528,143.06018181818183 548,163.06018181818183 528,183.06018181818183 478,183.06018181818183" ></polygon><text class="ct-percent-text" x="508" y="163.06018181818183" >65%</text></g><g ><polygon fill="#b1b2b3" class="ct-percent" points="712,265.0547272727273 762,265.0547272727273 782,285.0547272727273 762,305.0547272727273 712,305.0547272727273" ></polygon><text class="ct-percent-text" x="742" y="285.0547272727273" >9%</text></g></g></svg>